<?xml version="1.0" encoding="utf-8"?>
<!-- Generator: Adobe Illustrator 28.7.1, SVG Export Plug-In . SVG Version: 9.03 Build 54978)  -->
<svg version="1.1" baseProfile="basic" id="Layer_1"
	 xmlns="http://www.w3.org/2000/svg" xmlns:xlink="http://www.w3.org/1999/xlink" x="0px" y="0px" viewBox="0 0 595.28 841.89"
	 xml:space="preserve">
<rect x="42.52" y="45.99" fill="#FFFFFF" stroke="#000000" stroke-miterlimit="10" width="510.24" height="756.95"/>
<rect x="-58" y="773.5" width="748" height="84.5"/>
<path fill="#9A3434" d="M92.48,813.48H59.52c-3.6,0-6.52-2.92-6.52-6.52v-53.02c0-3.6,2.92-6.52,6.52-6.52h32.96
	c3.6,0,6.52,2.92,6.52,6.52v53.02C99,810.56,96.08,813.48,92.48,813.48z"/>
<g>
	<path fill="#FFFFFF" d="M83.59,758.22c1.75,2.64,2.78,5.8,2.78,9.2c0,0.73-0.05,1.45-0.14,2.15c1.73,2.12,2.94,4.67,3.46,7.46
		c0.79-1.82,1.22-3.83,1.22-5.94C90.9,765.62,87.97,760.83,83.59,758.22z M73.29,763.4c3.88,0,7.45,1.34,10.29,3.57
		c-0.14-4.39-2.33-8.28-5.63-10.73c-0.67-0.09-1.35-0.14-2.04-0.14c-7.47,0-13.66,5.46-14.8,12.61
		C64.15,765.45,68.49,763.4,73.29,763.4z M69.69,784.09c-0.46,0-0.91-0.02-1.37-0.06c2.22,1.31,4.81,2.06,7.58,2.06
		c4.48,0,8.5-1.97,11.24-5.08c0.02-0.31,0.03-0.62,0.03-0.94c0-2.51-0.67-4.87-1.85-6.91C82.99,779.53,76.87,784.09,69.69,784.09z
		 M83.26,770.41c-2.53-2.61-6.06-4.23-9.97-4.23c-5.25,0-9.83,2.93-12.19,7.25c0.38,2.45,1.35,4.7,2.77,6.6
		c1.77,0.82,3.75,1.29,5.83,1.29C76.33,781.31,81.89,776.64,83.26,770.41z"/>
</g>
<g>
	<path fill="#FFFFFF" d="M62.09,792.04c-0.05-0.01-0.1-0.02-0.14-0.03c-0.05,0-0.09-0.01-0.13-0.01c-0.14,0-0.27,0.03-0.36,0.08
		c-0.1,0.05-0.18,0.12-0.24,0.19c-0.06,0.07-0.1,0.15-0.13,0.24c-0.03,0.09-0.04,0.16-0.04,0.23v1.68h-1.08v-3.27h1.04v0.47h0.01
		c0.08-0.17,0.2-0.3,0.35-0.41c0.15-0.11,0.33-0.16,0.53-0.16c0.04,0,0.09,0,0.13,0.01c0.04,0,0.08,0.01,0.1,0.02L62.09,792.04z"/>
	<path fill="#FFFFFF" d="M66.01,792.82c0,0.04,0,0.09,0,0.13c0,0.04,0,0.09-0.01,0.12h-2.37c0.01,0.09,0.04,0.18,0.08,0.25
		c0.05,0.07,0.11,0.14,0.18,0.19c0.07,0.05,0.15,0.1,0.24,0.13c0.09,0.03,0.18,0.05,0.28,0.05c0.17,0,0.32-0.03,0.43-0.1
		c0.12-0.06,0.21-0.15,0.29-0.25l0.75,0.47c-0.15,0.22-0.36,0.4-0.61,0.52c-0.25,0.12-0.54,0.18-0.88,0.18
		c-0.25,0-0.48-0.04-0.7-0.11c-0.22-0.08-0.41-0.19-0.57-0.33c-0.16-0.15-0.29-0.33-0.39-0.54c-0.09-0.21-0.14-0.46-0.14-0.74
		c0-0.27,0.05-0.51,0.14-0.73c0.09-0.22,0.22-0.4,0.37-0.55c0.16-0.15,0.34-0.27,0.56-0.35c0.21-0.08,0.45-0.12,0.7-0.12
		c0.24,0,0.46,0.04,0.66,0.12c0.2,0.08,0.37,0.2,0.52,0.35c0.14,0.15,0.26,0.34,0.34,0.56C65.97,792.29,66.01,792.54,66.01,792.82z
		 M65.02,792.41c0-0.17-0.05-0.32-0.16-0.44c-0.11-0.12-0.27-0.18-0.48-0.18c-0.11,0-0.2,0.02-0.29,0.05
		c-0.09,0.03-0.16,0.08-0.23,0.13c-0.07,0.06-0.12,0.12-0.16,0.2c-0.04,0.08-0.06,0.16-0.07,0.24H65.02z"/>
	<path fill="#FFFFFF" d="M69.31,794.42v-0.43H69.3c-0.11,0.17-0.25,0.29-0.45,0.38c-0.19,0.09-0.4,0.13-0.62,0.13
		c-0.25,0-0.46-0.05-0.66-0.14c-0.19-0.1-0.36-0.22-0.49-0.38c-0.13-0.16-0.24-0.34-0.31-0.55c-0.07-0.21-0.11-0.43-0.11-0.66
		c0-0.23,0.04-0.45,0.11-0.65c0.07-0.21,0.17-0.39,0.31-0.55c0.13-0.16,0.3-0.28,0.49-0.37c0.19-0.09,0.4-0.14,0.64-0.14
		c0.24,0,0.44,0.05,0.61,0.14c0.17,0.09,0.3,0.19,0.39,0.3h0.01v-2.04h1.08v4.96H69.31z M69.27,792.78c0-0.11-0.02-0.21-0.06-0.31
		c-0.04-0.1-0.09-0.19-0.16-0.27c-0.07-0.08-0.15-0.14-0.25-0.19c-0.1-0.05-0.21-0.07-0.33-0.07c-0.13,0-0.24,0.02-0.33,0.07
		c-0.1,0.05-0.18,0.11-0.24,0.19c-0.07,0.08-0.11,0.17-0.15,0.27c-0.03,0.1-0.05,0.2-0.05,0.31c0,0.11,0.02,0.21,0.05,0.31
		c0.03,0.1,0.08,0.19,0.15,0.27c0.07,0.08,0.15,0.14,0.24,0.19c0.1,0.05,0.21,0.07,0.33,0.07c0.12,0,0.23-0.02,0.33-0.07
		c0.1-0.05,0.18-0.11,0.25-0.19c0.07-0.08,0.12-0.17,0.16-0.27C69.25,792.99,69.27,792.88,69.27,792.78z"/>
	<path fill="#FFFFFF" d="M76.79,794.11c0,0.32-0.05,0.6-0.14,0.83c-0.09,0.24-0.22,0.43-0.39,0.59c-0.17,0.16-0.37,0.27-0.61,0.35
		c-0.24,0.08-0.5,0.11-0.79,0.11c-0.29,0-0.59-0.04-0.89-0.13c-0.3-0.09-0.57-0.21-0.79-0.38l0.54-0.77
		c0.16,0.14,0.33,0.24,0.52,0.31c0.19,0.07,0.38,0.1,0.56,0.1c0.32,0,0.55-0.08,0.7-0.25c0.15-0.17,0.23-0.39,0.23-0.66v-0.2h-0.02
		c-0.1,0.13-0.24,0.24-0.41,0.32c-0.17,0.08-0.37,0.12-0.58,0.12c-0.25,0-0.47-0.04-0.66-0.13c-0.19-0.09-0.36-0.21-0.49-0.36
		c-0.13-0.15-0.24-0.33-0.31-0.53c-0.07-0.2-0.11-0.42-0.11-0.65c0-0.23,0.03-0.44,0.11-0.65c0.07-0.21,0.17-0.39,0.31-0.54
		c0.13-0.16,0.3-0.28,0.49-0.38c0.19-0.09,0.41-0.14,0.66-0.14c0.21,0,0.4,0.04,0.59,0.12c0.19,0.08,0.34,0.21,0.45,0.39h0.01v-0.42
		h1.02V794.11z M75.76,792.77c0-0.11-0.02-0.21-0.06-0.32c-0.04-0.1-0.09-0.19-0.16-0.27c-0.07-0.08-0.15-0.14-0.25-0.18
		c-0.1-0.04-0.21-0.07-0.33-0.07c-0.12,0-0.23,0.02-0.32,0.07c-0.09,0.04-0.17,0.1-0.24,0.18c-0.07,0.07-0.12,0.16-0.15,0.26
		c-0.04,0.1-0.05,0.21-0.05,0.32c0,0.11,0.02,0.21,0.05,0.32c0.03,0.1,0.09,0.19,0.15,0.27c0.07,0.08,0.15,0.14,0.24,0.18
		c0.09,0.05,0.2,0.07,0.32,0.07c0.12,0,0.23-0.02,0.33-0.07c0.1-0.05,0.18-0.11,0.25-0.18c0.07-0.07,0.12-0.16,0.16-0.26
		C75.75,792.99,75.76,792.88,75.76,792.77z"/>
	<path fill="#FFFFFF" d="M77.8,794.42v-4.96h1.1v4.96H77.8z"/>
	<path fill="#FFFFFF" d="M83.36,792.77c0,0.27-0.05,0.51-0.14,0.73c-0.1,0.22-0.23,0.4-0.39,0.55c-0.17,0.15-0.36,0.27-0.58,0.35
		c-0.22,0.08-0.45,0.12-0.7,0.12c-0.25,0-0.48-0.04-0.7-0.12c-0.22-0.08-0.41-0.2-0.58-0.35c-0.16-0.15-0.29-0.33-0.39-0.55
		c-0.1-0.22-0.14-0.46-0.14-0.73c0-0.27,0.05-0.51,0.14-0.72c0.1-0.21,0.23-0.4,0.39-0.54c0.16-0.15,0.36-0.26,0.58-0.34
		c0.22-0.08,0.45-0.12,0.7-0.12c0.25,0,0.48,0.04,0.7,0.12c0.22,0.08,0.41,0.19,0.58,0.34c0.17,0.15,0.3,0.33,0.39,0.54
		C83.31,792.26,83.36,792.5,83.36,792.77z M82.32,792.77c0-0.1-0.02-0.21-0.05-0.31c-0.04-0.1-0.09-0.19-0.15-0.27
		c-0.07-0.08-0.15-0.14-0.24-0.19c-0.1-0.05-0.21-0.07-0.33-0.07c-0.13,0-0.24,0.02-0.33,0.07c-0.1,0.05-0.18,0.11-0.24,0.19
		c-0.06,0.08-0.11,0.17-0.14,0.27c-0.03,0.1-0.05,0.2-0.05,0.31c0,0.11,0.02,0.21,0.05,0.31c0.03,0.1,0.08,0.19,0.15,0.27
		c0.07,0.08,0.15,0.15,0.24,0.19c0.1,0.05,0.21,0.07,0.33,0.07c0.13,0,0.24-0.02,0.33-0.07c0.1-0.05,0.18-0.11,0.24-0.19
		c0.07-0.08,0.11-0.17,0.15-0.27C82.31,792.98,82.32,792.88,82.32,792.77z"/>
	<path fill="#FFFFFF" d="M87.83,792.77c0,0.23-0.04,0.45-0.11,0.66c-0.07,0.21-0.17,0.39-0.31,0.55c-0.13,0.16-0.3,0.29-0.49,0.38
		c-0.19,0.1-0.41,0.14-0.66,0.14c-0.22,0-0.43-0.04-0.62-0.13c-0.19-0.09-0.34-0.22-0.45-0.38h-0.01v0.43H84.2v-4.96h1.08v2.04h0.01
		c0.09-0.11,0.22-0.21,0.39-0.3c0.17-0.09,0.37-0.14,0.61-0.14c0.24,0,0.45,0.05,0.64,0.14c0.19,0.09,0.35,0.22,0.49,0.37
		c0.13,0.16,0.24,0.34,0.31,0.55C87.8,792.33,87.83,792.54,87.83,792.77z M86.79,792.77c0-0.1-0.02-0.21-0.05-0.31
		c-0.03-0.1-0.08-0.19-0.15-0.27c-0.07-0.08-0.15-0.14-0.24-0.19c-0.1-0.05-0.21-0.07-0.33-0.07c-0.12,0-0.23,0.02-0.33,0.07
		c-0.1,0.05-0.18,0.11-0.25,0.19c-0.07,0.08-0.12,0.17-0.16,0.27c-0.04,0.1-0.06,0.2-0.06,0.31s0.02,0.21,0.06,0.31
		c0.04,0.1,0.09,0.19,0.16,0.27c0.07,0.08,0.15,0.14,0.25,0.19c0.1,0.05,0.21,0.07,0.33,0.07c0.13,0,0.24-0.02,0.33-0.07
		c0.1-0.05,0.18-0.11,0.24-0.19c0.07-0.08,0.11-0.17,0.15-0.27C86.78,792.98,86.79,792.88,86.79,792.77z"/>
	<path fill="#FFFFFF" d="M91.9,792.82c0,0.04,0,0.09,0,0.13c0,0.04,0,0.09-0.01,0.12h-2.37c0.01,0.09,0.04,0.18,0.08,0.25
		c0.05,0.07,0.11,0.14,0.18,0.19c0.07,0.05,0.15,0.1,0.24,0.13c0.09,0.03,0.18,0.05,0.28,0.05c0.17,0,0.32-0.03,0.43-0.1
		c0.12-0.06,0.21-0.15,0.29-0.25l0.75,0.47c-0.15,0.22-0.36,0.4-0.61,0.52c-0.25,0.12-0.54,0.18-0.88,0.18
		c-0.25,0-0.48-0.04-0.7-0.11c-0.22-0.08-0.41-0.19-0.57-0.33c-0.16-0.15-0.29-0.33-0.39-0.54c-0.09-0.21-0.14-0.46-0.14-0.74
		c0-0.27,0.05-0.51,0.14-0.73c0.09-0.22,0.22-0.4,0.37-0.55c0.16-0.15,0.34-0.27,0.56-0.35c0.21-0.08,0.45-0.12,0.7-0.12
		c0.24,0,0.46,0.04,0.66,0.12c0.2,0.08,0.37,0.2,0.52,0.35c0.14,0.15,0.26,0.34,0.34,0.56C91.86,792.29,91.9,792.54,91.9,792.82z
		 M90.91,792.41c0-0.17-0.05-0.32-0.16-0.44c-0.11-0.12-0.27-0.18-0.48-0.18c-0.11,0-0.2,0.02-0.29,0.05
		c-0.09,0.03-0.16,0.08-0.23,0.13c-0.07,0.06-0.12,0.12-0.16,0.2c-0.04,0.08-0.06,0.16-0.07,0.24H90.91z"/>
	<path fill="#FFFFFF" d="M58.81,803.87h-0.45v-4.65h0.45v0.53h0.02c0.13-0.2,0.3-0.35,0.51-0.46c0.21-0.1,0.43-0.15,0.65-0.15
		c0.24,0,0.46,0.04,0.65,0.12c0.19,0.08,0.36,0.2,0.5,0.34c0.14,0.14,0.25,0.32,0.32,0.51c0.08,0.2,0.11,0.41,0.11,0.64
		s-0.04,0.44-0.11,0.64c-0.08,0.2-0.18,0.37-0.32,0.51c-0.14,0.14-0.3,0.26-0.5,0.34c-0.19,0.08-0.41,0.12-0.65,0.12
		c-0.22,0-0.43-0.05-0.65-0.15c-0.21-0.1-0.38-0.25-0.51-0.44h-0.02V803.87z M61.1,800.76c0-0.17-0.03-0.33-0.08-0.48
		c-0.05-0.15-0.13-0.28-0.23-0.39c-0.1-0.11-0.22-0.2-0.36-0.27c-0.14-0.07-0.31-0.1-0.49-0.1c-0.17,0-0.33,0.03-0.47,0.1
		c-0.14,0.06-0.27,0.15-0.37,0.26c-0.11,0.11-0.19,0.24-0.25,0.39c-0.06,0.15-0.09,0.31-0.09,0.49c0,0.18,0.03,0.34,0.09,0.49
		c0.06,0.15,0.14,0.28,0.25,0.39c0.11,0.11,0.23,0.2,0.37,0.26c0.14,0.06,0.3,0.1,0.47,0.1c0.18,0,0.35-0.03,0.49-0.1
		c0.14-0.06,0.27-0.15,0.36-0.26c0.1-0.11,0.17-0.24,0.23-0.39C61.07,801.09,61.1,800.93,61.1,800.76z"/>
	<path fill="#FFFFFF" d="M62.52,799.58c0-0.13-0.01-0.25-0.02-0.35h0.43c0.01,0.08,0.02,0.18,0.02,0.28c0,0.1,0.01,0.18,0.01,0.25
		h0.01c0.09-0.18,0.22-0.32,0.39-0.44c0.17-0.11,0.37-0.17,0.59-0.17c0.06,0,0.11,0,0.15,0.01c0.05,0,0.09,0.01,0.14,0.03
		l-0.06,0.43c-0.03-0.01-0.07-0.02-0.13-0.03c-0.06-0.01-0.12-0.01-0.18-0.01c-0.12,0-0.23,0.02-0.34,0.07
		c-0.11,0.04-0.2,0.11-0.29,0.21c-0.08,0.09-0.15,0.21-0.2,0.36c-0.05,0.15-0.08,0.32-0.08,0.53v1.57h-0.45v-2.4
		C62.53,799.82,62.53,799.71,62.52,799.58z"/>
	<path fill="#FFFFFF" d="M67.83,800.76c0,0.23-0.04,0.45-0.12,0.64c-0.08,0.2-0.19,0.37-0.34,0.51c-0.14,0.14-0.32,0.26-0.52,0.34
		c-0.2,0.08-0.42,0.12-0.66,0.12c-0.24,0-0.46-0.04-0.66-0.12c-0.2-0.08-0.37-0.19-0.52-0.34s-0.26-0.32-0.34-0.51
		c-0.08-0.2-0.12-0.41-0.12-0.64c0-0.23,0.04-0.45,0.12-0.64c0.08-0.2,0.19-0.37,0.34-0.51c0.14-0.14,0.32-0.26,0.52-0.34
		c0.2-0.08,0.42-0.12,0.66-0.12c0.24,0,0.46,0.04,0.66,0.12c0.2,0.08,0.37,0.19,0.52,0.34c0.14,0.14,0.26,0.32,0.34,0.51
		C67.79,800.31,67.83,800.53,67.83,800.76z M67.35,800.76c0-0.17-0.03-0.33-0.08-0.48c-0.05-0.15-0.13-0.28-0.23-0.39
		c-0.1-0.11-0.22-0.2-0.37-0.27c-0.14-0.07-0.31-0.1-0.49-0.1c-0.18,0-0.34,0.03-0.48,0.1c-0.14,0.07-0.26,0.15-0.36,0.27
		c-0.1,0.11-0.18,0.24-0.23,0.39c-0.05,0.15-0.08,0.31-0.08,0.48c0,0.17,0.03,0.33,0.08,0.48c0.05,0.15,0.13,0.28,0.23,0.39
		c0.1,0.11,0.22,0.2,0.36,0.26c0.14,0.06,0.3,0.1,0.48,0.1c0.18,0,0.34-0.03,0.49-0.1c0.14-0.06,0.27-0.15,0.37-0.26
		c0.1-0.11,0.18-0.24,0.23-0.39C67.33,801.09,67.35,800.93,67.35,800.76z"/>
	<path fill="#FFFFFF" d="M71.31,801.78c-0.13,0.2-0.3,0.35-0.51,0.45c-0.21,0.1-0.43,0.15-0.65,0.15c-0.24,0-0.46-0.04-0.65-0.12
		c-0.19-0.08-0.36-0.2-0.5-0.34c-0.14-0.14-0.25-0.32-0.32-0.51c-0.08-0.2-0.11-0.41-0.11-0.64s0.04-0.44,0.11-0.64
		c0.08-0.2,0.18-0.37,0.32-0.51c0.14-0.14,0.3-0.26,0.5-0.34c0.19-0.08,0.41-0.12,0.65-0.12c0.22,0,0.44,0.05,0.65,0.15
		c0.21,0.1,0.38,0.26,0.51,0.46h0.01v-2.42h0.45v4.96h-0.45v-0.52H71.31z M69.04,800.76c0,0.17,0.03,0.33,0.08,0.48
		c0.05,0.15,0.13,0.28,0.23,0.39c0.1,0.11,0.22,0.2,0.36,0.26c0.14,0.06,0.31,0.1,0.49,0.1c0.17,0,0.33-0.03,0.47-0.1
		c0.14-0.06,0.27-0.15,0.37-0.26c0.11-0.11,0.19-0.24,0.25-0.39c0.06-0.15,0.09-0.31,0.09-0.49c0-0.17-0.03-0.34-0.09-0.49
		c-0.06-0.15-0.14-0.28-0.25-0.39c-0.11-0.11-0.23-0.2-0.37-0.26c-0.14-0.06-0.3-0.1-0.47-0.1c-0.18,0-0.35,0.03-0.49,0.1
		s-0.27,0.15-0.36,0.27c-0.1,0.11-0.17,0.24-0.23,0.39C69.06,800.43,69.04,800.59,69.04,800.76z"/>
	<path fill="#FFFFFF" d="M75.2,802.3c-0.01-0.08-0.02-0.17-0.02-0.28c0-0.1-0.01-0.18-0.01-0.25h-0.01
		c-0.09,0.18-0.23,0.32-0.43,0.44c-0.2,0.11-0.4,0.17-0.62,0.17c-0.39,0-0.68-0.12-0.88-0.35c-0.19-0.23-0.29-0.54-0.29-0.92v-1.88
		h0.45v1.7c0,0.16,0.01,0.31,0.04,0.44c0.03,0.13,0.07,0.24,0.13,0.34c0.06,0.09,0.15,0.17,0.26,0.22c0.11,0.05,0.24,0.08,0.4,0.08
		c0.12,0,0.23-0.02,0.34-0.07c0.11-0.05,0.21-0.12,0.3-0.22c0.09-0.1,0.16-0.22,0.21-0.37c0.05-0.15,0.08-0.33,0.08-0.54v-1.58h0.45
		v2.4c0,0.08,0,0.19,0.01,0.32c0,0.13,0.01,0.25,0.02,0.35H75.2z"/>
	<path fill="#FFFFFF" d="M78.99,799.93c-0.07-0.12-0.18-0.22-0.32-0.29c-0.14-0.08-0.3-0.11-0.46-0.11c-0.18,0-0.34,0.03-0.49,0.1
		c-0.14,0.06-0.27,0.15-0.37,0.26c-0.1,0.11-0.18,0.24-0.24,0.39c-0.05,0.15-0.08,0.31-0.08,0.49c0,0.18,0.03,0.34,0.08,0.49
		c0.05,0.15,0.13,0.28,0.23,0.39c0.1,0.11,0.22,0.2,0.37,0.26c0.14,0.06,0.31,0.1,0.49,0.1c0.2,0,0.36-0.04,0.5-0.11
		c0.14-0.07,0.25-0.17,0.33-0.29l0.33,0.25c-0.13,0.16-0.29,0.29-0.48,0.39c-0.19,0.1-0.42,0.14-0.69,0.14
		c-0.25,0-0.47-0.04-0.68-0.12c-0.2-0.08-0.37-0.19-0.52-0.34c-0.14-0.14-0.25-0.32-0.33-0.51c-0.08-0.2-0.12-0.41-0.12-0.64
		c0-0.23,0.04-0.45,0.12-0.64c0.08-0.2,0.19-0.37,0.33-0.51c0.14-0.14,0.31-0.26,0.52-0.34c0.2-0.08,0.43-0.12,0.68-0.12
		c0.21,0,0.41,0.04,0.63,0.13c0.21,0.09,0.38,0.22,0.52,0.4L78.99,799.93z"/>
	<path fill="#FFFFFF" d="M81.45,799.6h-0.87v1.79c0,0.11,0.01,0.21,0.03,0.28c0.02,0.07,0.05,0.13,0.1,0.17
		c0.04,0.04,0.09,0.07,0.15,0.09c0.06,0.02,0.12,0.02,0.18,0.02c0.06,0,0.13-0.01,0.19-0.03c0.07-0.02,0.13-0.04,0.19-0.07
		l0.02,0.39c-0.08,0.03-0.16,0.05-0.25,0.07c-0.09,0.02-0.18,0.02-0.28,0.02c-0.08,0-0.17-0.01-0.26-0.03
		c-0.09-0.02-0.18-0.06-0.26-0.12c-0.08-0.06-0.14-0.14-0.19-0.25c-0.05-0.11-0.08-0.24-0.08-0.41v-1.92H79.5v-0.37h0.64v-0.87h0.45
		v0.87h0.87V799.6z"/>
	<path fill="#FFFFFF" d="M82.69,798.04c0,0.09-0.03,0.17-0.1,0.23c-0.07,0.06-0.14,0.09-0.22,0.09c-0.08,0-0.15-0.03-0.22-0.09
		s-0.1-0.13-0.1-0.23s0.03-0.17,0.1-0.23s0.14-0.09,0.22-0.09c0.08,0,0.15,0.03,0.22,0.09C82.66,797.88,82.69,797.95,82.69,798.04z
		 M82.6,802.3h-0.45v-3.07h0.45V802.3z"/>
	<path fill="#FFFFFF" d="M86.84,800.76c0,0.23-0.04,0.45-0.12,0.64c-0.08,0.2-0.19,0.37-0.34,0.51c-0.14,0.14-0.32,0.26-0.52,0.34
		c-0.2,0.08-0.42,0.12-0.66,0.12c-0.24,0-0.46-0.04-0.66-0.12c-0.2-0.08-0.37-0.19-0.52-0.34c-0.14-0.14-0.26-0.32-0.34-0.51
		c-0.08-0.2-0.12-0.41-0.12-0.64c0-0.23,0.04-0.45,0.12-0.64c0.08-0.2,0.19-0.37,0.34-0.51c0.14-0.14,0.32-0.26,0.52-0.34
		c0.2-0.08,0.42-0.12,0.66-0.12c0.24,0,0.46,0.04,0.66,0.12c0.2,0.08,0.37,0.19,0.52,0.34c0.14,0.14,0.26,0.32,0.34,0.51
		C86.8,800.31,86.84,800.53,86.84,800.76z M86.37,800.76c0-0.17-0.03-0.33-0.08-0.48c-0.05-0.15-0.13-0.28-0.23-0.39
		c-0.1-0.11-0.22-0.2-0.37-0.27s-0.31-0.1-0.49-0.1c-0.18,0-0.34,0.03-0.48,0.1c-0.14,0.07-0.26,0.15-0.36,0.27
		c-0.1,0.11-0.18,0.24-0.23,0.39c-0.05,0.15-0.08,0.31-0.08,0.48c0,0.17,0.03,0.33,0.08,0.48c0.05,0.15,0.13,0.28,0.23,0.39
		c0.1,0.11,0.22,0.2,0.36,0.26c0.14,0.06,0.3,0.1,0.48,0.1c0.18,0,0.34-0.03,0.49-0.1c0.14-0.06,0.27-0.15,0.37-0.26
		c0.1-0.11,0.18-0.24,0.23-0.39C86.34,801.09,86.37,800.93,86.37,800.76z"/>
	<path fill="#FFFFFF" d="M88.2,799.22c0.01,0.08,0.02,0.18,0.02,0.28c0,0.1,0.01,0.18,0.01,0.25h0.01c0.09-0.18,0.23-0.32,0.43-0.44
		c0.2-0.11,0.4-0.17,0.62-0.17c0.39,0,0.68,0.12,0.88,0.35c0.19,0.23,0.29,0.54,0.29,0.92v1.88h-0.45v-1.7
		c0-0.16-0.01-0.31-0.04-0.44c-0.03-0.13-0.07-0.24-0.13-0.34s-0.15-0.17-0.26-0.22c-0.11-0.05-0.24-0.08-0.4-0.08
		c-0.12,0-0.23,0.02-0.34,0.07c-0.11,0.05-0.21,0.12-0.3,0.22c-0.09,0.1-0.16,0.22-0.21,0.37c-0.05,0.15-0.08,0.33-0.08,0.54v1.58
		H87.8v-2.4c0-0.08,0-0.19-0.01-0.32c0-0.13-0.01-0.25-0.02-0.35H88.2z"/>
	<path fill="#FFFFFF" d="M93.24,799.95c-0.07-0.13-0.17-0.23-0.3-0.31c-0.13-0.08-0.29-0.12-0.46-0.12c-0.08,0-0.16,0.01-0.24,0.03
		c-0.08,0.02-0.15,0.05-0.21,0.09c-0.06,0.04-0.11,0.09-0.15,0.15c-0.04,0.06-0.06,0.13-0.06,0.22c0,0.14,0.06,0.26,0.18,0.33
		c0.12,0.08,0.3,0.14,0.56,0.19c0.36,0.07,0.63,0.18,0.8,0.32c0.17,0.14,0.26,0.33,0.26,0.57c0,0.18-0.03,0.32-0.1,0.44
		c-0.07,0.12-0.16,0.22-0.27,0.3c-0.11,0.08-0.23,0.13-0.37,0.16c-0.14,0.03-0.28,0.05-0.42,0.05c-0.23,0-0.46-0.05-0.68-0.14
		c-0.22-0.1-0.4-0.25-0.54-0.45l0.35-0.26c0.08,0.14,0.19,0.25,0.35,0.34c0.15,0.09,0.32,0.14,0.51,0.14c0.1,0,0.19-0.01,0.28-0.03
		c0.09-0.02,0.16-0.05,0.23-0.09c0.07-0.04,0.12-0.1,0.16-0.17c0.04-0.07,0.06-0.15,0.06-0.25c0-0.16-0.08-0.28-0.23-0.36
		c-0.16-0.08-0.38-0.16-0.67-0.23c-0.09-0.02-0.19-0.05-0.29-0.08c-0.1-0.03-0.2-0.08-0.29-0.14c-0.09-0.06-0.16-0.14-0.22-0.24
		c-0.06-0.1-0.09-0.22-0.09-0.36c0-0.16,0.03-0.29,0.09-0.4c0.06-0.11,0.14-0.2,0.25-0.28c0.1-0.07,0.22-0.13,0.35-0.16
		c0.13-0.03,0.27-0.05,0.41-0.05c0.21,0,0.42,0.05,0.62,0.14c0.2,0.1,0.35,0.23,0.45,0.41L93.24,799.95z"/>
</g>
<g>
</g>
<g>
</g>
<g>
</g>
<g>
</g>
<g>
</g>
<g>
</g>
</svg>
